<svg xmlns="http://www.w3.org/2000/svg" xmlns:xlink="http://www.w3.org/1999/xlink" width="500" zoomAndPan="magnify" viewBox="0 0 375 209.999996" height="280" preserveAspectRatio="xMidYMid meet" version="1.0"><defs><g/><clipPath id="116d5a4d6a"><path d="M 11.457031 22.085938 L 180.207031 22.085938 L 180.207031 187.835938 L 11.457031 187.835938 Z M 11.457031 22.085938 " clip-rule="nonzero"/></clipPath><clipPath id="ea0f6659c1"><path d="M 154 74 L 174 74 L 174 95 L 154 95 Z M 154 74 " clip-rule="nonzero"/></clipPath><clipPath id="5a65dddbe1"><path d="M 166.210938 72.410156 L 176.359375 78.589844 L 163.140625 100.304688 L 152.992188 94.128906 Z M 166.210938 72.410156 " clip-rule="nonzero"/></clipPath><clipPath id="0b61dec0e1"><path d="M 173.453125 76.875 L 167.667969 74.335938 C 167.582031 74.300781 167.464844 74.320312 167.417969 74.398438 L 158.71875 84.8125 C 158.625 84.9375 158.664062 85.105469 158.804688 85.171875 L 162.371094 86.589844 C 162.519531 86.644531 162.554688 86.847656 162.449219 86.960938 L 154.390625 94.621094 C 154.292969 94.722656 154.300781 94.886719 154.429688 94.96875 C 154.496094 95.007812 154.585938 95.007812 154.65625 94.980469 L 172.269531 85.25 C 172.433594 85.15625 172.417969 84.914062 172.246094 84.84375 L 167.28125 83.019531 C 167.121094 82.957031 167.082031 82.757812 167.210938 82.636719 L 173.511719 77.246094 C 173.628906 77.140625 173.605469 76.949219 173.453125 76.875 Z M 173.453125 76.875 " clip-rule="nonzero"/></clipPath></defs><g fill="#001849" fill-opacity="1"><g transform="translate(98.008632, 157.860182)"><g><path d="M 35.21875 -27.734375 L 40.546875 -27.734375 C 40.796875 -27.734375 40.976562 -27.648438 41.09375 -27.484375 C 41.21875 -27.316406 41.222656 -27.101562 41.109375 -26.84375 L 28.984375 0 C 28.742188 0.519531 28.429688 0.78125 28.046875 0.78125 C 27.671875 0.78125 27.378906 0.519531 27.171875 0 L 20.84375 -15.671875 L 14.546875 0 C 14.328125 0.519531 14.03125 0.78125 13.65625 0.78125 C 13.28125 0.78125 12.96875 0.519531 12.71875 0 L 0.609375 -26.84375 C 0.492188 -27.101562 0.488281 -27.316406 0.59375 -27.484375 C 0.707031 -27.648438 0.898438 -27.734375 1.171875 -27.734375 L 6.5 -27.734375 C 6.914062 -27.734375 7.195312 -27.539062 7.34375 -27.15625 L 13.640625 -11.96875 L 19.890625 -27.5625 C 19.953125 -27.707031 20.046875 -27.835938 20.171875 -27.953125 C 20.296875 -28.078125 20.484375 -28.140625 20.734375 -28.140625 C 20.960938 -28.140625 21.144531 -28.082031 21.28125 -27.96875 C 21.425781 -27.863281 21.53125 -27.726562 21.59375 -27.5625 L 28.0625 -11.953125 L 34.375 -27.15625 C 34.519531 -27.539062 34.800781 -27.734375 35.21875 -27.734375 Z M 35.21875 -27.734375 "/></g></g></g><g fill="#001849" fill-opacity="1"><g transform="translate(147.119166, 157.860182)"><g><path d="M 14.765625 -27.734375 L 27.125 -0.890625 C 27.238281 -0.617188 27.242188 -0.398438 27.140625 -0.234375 C 27.035156 -0.078125 26.847656 0 26.578125 0 L 21.25 0 C 20.820312 0 20.535156 -0.191406 20.390625 -0.578125 L 19.171875 -3.640625 L 8.515625 -3.640625 L 7.296875 -0.578125 C 7.148438 -0.191406 6.863281 0 6.4375 0 L 1.125 0 C 0.851562 0 0.660156 -0.078125 0.546875 -0.234375 C 0.441406 -0.398438 0.453125 -0.617188 0.578125 -0.890625 L 12.9375 -27.734375 C 13.175781 -28.253906 13.476562 -28.515625 13.84375 -28.515625 C 14.207031 -28.515625 14.515625 -28.253906 14.765625 -27.734375 Z M 13.84375 -17.046875 L 10.453125 -8.5 L 17.25 -8.5 Z M 13.84375 -17.046875 "/></g></g></g><g fill="#001849" fill-opacity="1"><g transform="translate(182.240532, 157.860182)"><g><path d="M 12.78125 0 L 7.90625 0 C 7.414062 0 7.171875 -0.242188 7.171875 -0.734375 L 7.171875 -22.28125 L 1.390625 -22.28125 C 0.898438 -22.28125 0.65625 -22.523438 0.65625 -23.015625 L 0.65625 -26.984375 C 0.65625 -27.484375 0.898438 -27.734375 1.390625 -27.734375 L 19.296875 -27.734375 C 19.785156 -27.734375 20.03125 -27.484375 20.03125 -26.984375 L 20.03125 -23.015625 C 20.03125 -22.523438 19.785156 -22.28125 19.296875 -22.28125 L 13.515625 -22.28125 L 13.515625 -0.734375 C 13.515625 -0.242188 13.269531 0 12.78125 0 Z M 12.78125 0 "/></g></g></g><g fill="#001849" fill-opacity="1"><g transform="translate(210.358293, 157.860182)"><g><path d="M 12.78125 0 L 7.90625 0 C 7.414062 0 7.171875 -0.242188 7.171875 -0.734375 L 7.171875 -22.28125 L 1.390625 -22.28125 C 0.898438 -22.28125 0.65625 -22.523438 0.65625 -23.015625 L 0.65625 -26.984375 C 0.65625 -27.484375 0.898438 -27.734375 1.390625 -27.734375 L 19.296875 -27.734375 C 19.785156 -27.734375 20.03125 -27.484375 20.03125 -26.984375 L 20.03125 -23.015625 C 20.03125 -22.523438 19.785156 -22.28125 19.296875 -22.28125 L 13.515625 -22.28125 L 13.515625 -0.734375 C 13.515625 -0.242188 13.269531 0 12.78125 0 Z M 12.78125 0 "/></g></g></g><g fill="#001849" fill-opacity="1"><g transform="translate(238.476047, 157.860182)"><g><path d="M 35.21875 -27.734375 L 40.546875 -27.734375 C 40.796875 -27.734375 40.976562 -27.648438 41.09375 -27.484375 C 41.21875 -27.316406 41.222656 -27.101562 41.109375 -26.84375 L 28.984375 0 C 28.742188 0.519531 28.429688 0.78125 28.046875 0.78125 C 27.671875 0.78125 27.378906 0.519531 27.171875 0 L 20.84375 -15.671875 L 14.546875 0 C 14.328125 0.519531 14.03125 0.78125 13.65625 0.78125 C 13.28125 0.78125 12.96875 0.519531 12.71875 0 L 0.609375 -26.84375 C 0.492188 -27.101562 0.488281 -27.316406 0.59375 -27.484375 C 0.707031 -27.648438 0.898438 -27.734375 1.171875 -27.734375 L 6.5 -27.734375 C 6.914062 -27.734375 7.195312 -27.539062 7.34375 -27.15625 L 13.640625 -11.96875 L 19.890625 -27.5625 C 19.953125 -27.707031 20.046875 -27.835938 20.171875 -27.953125 C 20.296875 -28.078125 20.484375 -28.140625 20.734375 -28.140625 C 20.960938 -28.140625 21.144531 -28.082031 21.28125 -27.96875 C 21.425781 -27.863281 21.53125 -27.726562 21.59375 -27.5625 L 28.0625 -11.953125 L 34.375 -27.15625 C 34.519531 -27.539062 34.800781 -27.734375 35.21875 -27.734375 Z M 35.21875 -27.734375 "/></g></g></g><g fill="#001849" fill-opacity="1"><g transform="translate(287.586578, 157.860182)"><g><path d="M 8.296875 0 L 3.484375 0 C 2.992188 0 2.75 -0.242188 2.75 -0.734375 L 2.75 -26.984375 C 2.75 -27.484375 2.992188 -27.734375 3.484375 -27.734375 L 8.296875 -27.734375 C 8.796875 -27.734375 9.046875 -27.484375 9.046875 -26.984375 L 9.046875 -0.734375 C 9.046875 -0.242188 8.796875 0 8.296875 0 Z M 8.296875 0 "/></g></g></g><g fill="#001849" fill-opacity="1"><g transform="translate(306.769316, 157.860182)"><g><path d="M 11.078125 0.703125 C 9.734375 0.703125 8.34375 0.582031 6.90625 0.34375 C 5.46875 0.101562 3.898438 -0.296875 2.203125 -0.859375 C 1.722656 -1.046875 1.570312 -1.367188 1.75 -1.828125 L 3.109375 -5.796875 C 3.265625 -6.242188 3.582031 -6.378906 4.0625 -6.203125 C 5.3125 -5.710938 6.539062 -5.335938 7.75 -5.078125 C 8.96875 -4.816406 10.066406 -4.6875 11.046875 -4.6875 C 12.191406 -4.6875 13.113281 -4.890625 13.8125 -5.296875 C 14.507812 -5.703125 14.859375 -6.328125 14.859375 -7.171875 C 14.859375 -7.691406 14.664062 -8.164062 14.28125 -8.59375 C 13.90625 -9.03125 13.398438 -9.4375 12.765625 -9.8125 C 12.128906 -10.1875 11.410156 -10.566406 10.609375 -10.953125 C 9.816406 -11.335938 9.003906 -11.75 8.171875 -12.1875 C 7.359375 -12.613281 6.570312 -13.082031 5.8125 -13.59375 C 5.0625 -14.113281 4.394531 -14.691406 3.8125 -15.328125 C 3.226562 -15.972656 2.769531 -16.710938 2.4375 -17.546875 C 2.101562 -18.390625 1.9375 -19.359375 1.9375 -20.453125 C 1.9375 -21.878906 2.195312 -23.097656 2.71875 -24.109375 C 3.25 -25.117188 3.96875 -25.941406 4.875 -26.578125 C 5.78125 -27.222656 6.804688 -27.691406 7.953125 -27.984375 C 9.097656 -28.285156 10.285156 -28.4375 11.515625 -28.4375 C 12.234375 -28.4375 13.015625 -28.378906 13.859375 -28.265625 C 14.710938 -28.160156 15.578125 -28.003906 16.453125 -27.796875 C 17.335938 -27.585938 18.195312 -27.34375 19.03125 -27.0625 C 19.5 -26.90625 19.648438 -26.59375 19.484375 -26.125 L 18.296875 -22.34375 C 18.128906 -21.875 17.816406 -21.722656 17.359375 -21.890625 C 16.429688 -22.253906 15.46875 -22.535156 14.46875 -22.734375 C 13.476562 -22.941406 12.554688 -23.046875 11.703125 -23.046875 C 11.078125 -23.046875 10.503906 -22.976562 9.984375 -22.84375 C 9.472656 -22.707031 9.070312 -22.484375 8.78125 -22.171875 C 8.488281 -21.859375 8.34375 -21.4375 8.34375 -20.90625 C 8.34375 -20.394531 8.492188 -19.941406 8.796875 -19.546875 C 9.097656 -19.148438 9.515625 -18.78125 10.046875 -18.4375 C 10.578125 -18.09375 11.195312 -17.75 11.90625 -17.40625 C 12.625 -17.0625 13.382812 -16.695312 14.1875 -16.3125 C 15.03125 -15.90625 15.867188 -15.445312 16.703125 -14.9375 C 17.535156 -14.425781 18.296875 -13.828125 18.984375 -13.140625 C 19.679688 -12.460938 20.238281 -11.65625 20.65625 -10.71875 C 21.070312 -9.789062 21.28125 -8.703125 21.28125 -7.453125 C 21.28125 -6.253906 21.085938 -5.203125 20.703125 -4.296875 C 20.328125 -3.390625 19.804688 -2.617188 19.140625 -1.984375 C 18.484375 -1.347656 17.722656 -0.832031 16.859375 -0.4375 C 15.992188 -0.0390625 15.066406 0.242188 14.078125 0.421875 C 13.085938 0.609375 12.085938 0.703125 11.078125 0.703125 Z M 11.078125 0.703125 "/></g></g></g><g fill="#001849" fill-opacity="1"><g transform="translate(336.944832, 157.860182)"><g><path d="M 19.65625 0 L 3.484375 0 C 2.992188 0 2.75 -0.242188 2.75 -0.734375 L 2.75 -26.984375 C 2.75 -27.484375 2.992188 -27.734375 3.484375 -27.734375 L 19.65625 -27.734375 C 20.144531 -27.734375 20.390625 -27.484375 20.390625 -26.984375 L 20.390625 -23.015625 C 20.390625 -22.523438 20.144531 -22.28125 19.65625 -22.28125 L 9.046875 -22.28125 L 9.046875 -14.515625 L 18.21875 -14.515625 C 18.707031 -14.515625 18.953125 -14.265625 18.953125 -13.765625 L 18.953125 -10.09375 C 18.953125 -9.59375 18.707031 -9.34375 18.21875 -9.34375 L 9.046875 -9.34375 L 9.046875 -5.453125 L 19.65625 -5.453125 C 20.144531 -5.453125 20.390625 -5.207031 20.390625 -4.71875 L 20.390625 -0.734375 C 20.390625 -0.242188 20.144531 0 19.65625 0 Z M 19.65625 0 "/></g></g></g><g fill="#ffbd59" fill-opacity="1"><g transform="translate(98.076574, 183.322071)"><g><path d="M 5.5 0.140625 C 4.5625 0.140625 3.65625 -0.00390625 2.78125 -0.296875 C 1.914062 -0.585938 1.234375 -0.960938 0.734375 -1.421875 L 1.390625 -2.8125 C 1.859375 -2.382812 2.460938 -2.035156 3.203125 -1.765625 C 3.953125 -1.503906 4.71875 -1.375 5.5 -1.375 C 6.53125 -1.375 7.300781 -1.546875 7.8125 -1.890625 C 8.320312 -2.242188 8.578125 -2.710938 8.578125 -3.296875 C 8.578125 -3.722656 8.4375 -4.066406 8.15625 -4.328125 C 7.875 -4.597656 7.53125 -4.800781 7.125 -4.9375 C 6.71875 -5.082031 6.140625 -5.242188 5.390625 -5.421875 C 4.453125 -5.648438 3.695312 -5.875 3.125 -6.09375 C 2.550781 -6.320312 2.054688 -6.671875 1.640625 -7.140625 C 1.234375 -7.609375 1.03125 -8.242188 1.03125 -9.046875 C 1.03125 -9.703125 1.203125 -10.296875 1.546875 -10.828125 C 1.898438 -11.367188 2.429688 -11.796875 3.140625 -12.109375 C 3.859375 -12.429688 4.742188 -12.59375 5.796875 -12.59375 C 6.535156 -12.59375 7.257812 -12.5 7.96875 -12.3125 C 8.6875 -12.125 9.300781 -11.851562 9.8125 -11.5 L 9.21875 -10.078125 C 8.695312 -10.410156 8.140625 -10.660156 7.546875 -10.828125 C 6.953125 -11.003906 6.367188 -11.09375 5.796875 -11.09375 C 4.796875 -11.09375 4.039062 -10.90625 3.53125 -10.53125 C 3.03125 -10.164062 2.78125 -9.691406 2.78125 -9.109375 C 2.78125 -8.679688 2.921875 -8.332031 3.203125 -8.0625 C 3.484375 -7.800781 3.832031 -7.59375 4.25 -7.4375 C 4.675781 -7.289062 5.253906 -7.132812 5.984375 -6.96875 C 6.921875 -6.75 7.671875 -6.523438 8.234375 -6.296875 C 8.804688 -6.078125 9.296875 -5.734375 9.703125 -5.265625 C 10.117188 -4.804688 10.328125 -4.1875 10.328125 -3.40625 C 10.328125 -2.75 10.144531 -2.148438 9.78125 -1.609375 C 9.425781 -1.066406 8.882812 -0.640625 8.15625 -0.328125 C 7.4375 -0.015625 6.550781 0.140625 5.5 0.140625 Z M 5.5 0.140625 "/></g></g></g><g fill="#ffbd59" fill-opacity="1"><g transform="translate(112.413911, 183.322071)"><g><path d="M 13.421875 0 L 13.40625 -9.078125 L 8.90625 -1.515625 L 8.078125 -1.515625 L 3.578125 -9.015625 L 3.578125 0 L 1.875 0 L 1.875 -12.453125 L 3.328125 -12.453125 L 8.53125 -3.703125 L 13.65625 -12.453125 L 15.109375 -12.453125 L 15.125 0 Z M 13.421875 0 "/></g></g></g><g fill="#ffbd59" fill-opacity="1"><g transform="translate(132.692167, 183.322071)"><g><path d="M 9.8125 -3.109375 L 3.1875 -3.109375 L 1.8125 0 L -0.015625 0 L 5.625 -12.453125 L 7.390625 -12.453125 L 13.046875 0 L 11.171875 0 Z M 9.1875 -4.53125 L 6.5 -10.640625 L 3.8125 -4.53125 Z M 9.1875 -4.53125 "/></g></g></g><g fill="#ffbd59" fill-opacity="1"><g transform="translate(149.003887, 183.322071)"><g><path d="M 10.203125 0 L 7.515625 -3.828125 C 7.179688 -3.804688 6.921875 -3.796875 6.734375 -3.796875 L 3.640625 -3.796875 L 3.640625 0 L 1.875 0 L 1.875 -12.453125 L 6.734375 -12.453125 C 8.335938 -12.453125 9.601562 -12.066406 10.53125 -11.296875 C 11.457031 -10.523438 11.921875 -9.460938 11.921875 -8.109375 C 11.921875 -7.148438 11.679688 -6.332031 11.203125 -5.65625 C 10.734375 -4.976562 10.0625 -4.488281 9.1875 -4.1875 L 12.140625 0 Z M 6.671875 -5.296875 C 7.796875 -5.296875 8.65625 -5.539062 9.25 -6.03125 C 9.84375 -6.519531 10.140625 -7.210938 10.140625 -8.109375 C 10.140625 -9.015625 9.84375 -9.707031 9.25 -10.1875 C 8.65625 -10.664062 7.796875 -10.90625 6.671875 -10.90625 L 3.640625 -10.90625 L 3.640625 -5.296875 Z M 6.671875 -5.296875 "/></g></g></g><g fill="#ffbd59" fill-opacity="1"><g transform="translate(165.226673, 183.322071)"><g><path d="M 4.34375 -10.90625 L 0.078125 -10.90625 L 0.078125 -12.453125 L 10.375 -12.453125 L 10.375 -10.90625 L 6.109375 -10.90625 L 6.109375 0 L 4.34375 0 Z M 4.34375 -10.90625 "/></g></g></g><g fill="#ffbd59" fill-opacity="1"><g transform="translate(178.959245, 183.322071)"><g><path d="M 2.03125 0.109375 C 1.695312 0.109375 1.410156 -0.00390625 1.171875 -0.234375 C 0.929688 -0.472656 0.8125 -0.769531 0.8125 -1.125 C 0.8125 -1.46875 0.929688 -1.753906 1.171875 -1.984375 C 1.410156 -2.210938 1.695312 -2.328125 2.03125 -2.328125 C 2.363281 -2.328125 2.640625 -2.210938 2.859375 -1.984375 C 3.085938 -1.765625 3.203125 -1.476562 3.203125 -1.125 C 3.203125 -0.769531 3.085938 -0.472656 2.859375 -0.234375 C 2.628906 -0.00390625 2.351562 0.109375 2.03125 0.109375 Z M 2.03125 0.109375 "/></g></g></g><g fill="#ffbd59" fill-opacity="1"><g transform="translate(186.288444, 183.322071)"><g/></g></g><g fill="#ffbd59" fill-opacity="1"><g transform="translate(194.364699, 183.322071)"><g><path d="M 12.578125 -12.453125 L 12.578125 0 L 11.125 0 L 3.640625 -9.296875 L 3.640625 0 L 1.875 0 L 1.875 -12.453125 L 3.328125 -12.453125 L 10.796875 -3.171875 L 10.796875 -12.453125 Z M 12.578125 -12.453125 "/></g></g></g><g fill="#ffbd59" fill-opacity="1"><g transform="translate(212.099381, 183.322071)"><g><path d="M 9.8125 -3.109375 L 3.1875 -3.109375 L 1.8125 0 L -0.015625 0 L 5.625 -12.453125 L 7.390625 -12.453125 L 13.046875 0 L 11.171875 0 Z M 9.1875 -4.53125 L 6.5 -10.640625 L 3.8125 -4.53125 Z M 9.1875 -4.53125 "/></g></g></g><g fill="#ffbd59" fill-opacity="1"><g transform="translate(228.411098, 183.322071)"><g><path d="M 7.4375 0.140625 C 6.195312 0.140625 5.070312 -0.132812 4.0625 -0.6875 C 3.0625 -1.238281 2.273438 -1.992188 1.703125 -2.953125 C 1.140625 -3.921875 0.859375 -5.015625 0.859375 -6.234375 C 0.859375 -7.441406 1.140625 -8.523438 1.703125 -9.484375 C 2.273438 -10.453125 3.066406 -11.210938 4.078125 -11.765625 C 5.085938 -12.316406 6.210938 -12.59375 7.453125 -12.59375 C 8.429688 -12.59375 9.320312 -12.429688 10.125 -12.109375 C 10.9375 -11.785156 11.625 -11.300781 12.1875 -10.65625 L 11.03125 -9.546875 C 10.09375 -10.523438 8.925781 -11.015625 7.53125 -11.015625 C 6.601562 -11.015625 5.765625 -10.804688 5.015625 -10.390625 C 4.265625 -9.972656 3.679688 -9.398438 3.265625 -8.671875 C 2.847656 -7.941406 2.640625 -7.128906 2.640625 -6.234375 C 2.640625 -5.328125 2.847656 -4.507812 3.265625 -3.78125 C 3.679688 -3.050781 4.265625 -2.476562 5.015625 -2.0625 C 5.765625 -1.644531 6.601562 -1.4375 7.53125 -1.4375 C 8.914062 -1.4375 10.082031 -1.9375 11.03125 -2.9375 L 12.1875 -1.8125 C 11.625 -1.175781 10.9375 -0.691406 10.125 -0.359375 C 9.3125 -0.0234375 8.414062 0.140625 7.4375 0.140625 Z M 7.4375 0.140625 "/></g></g></g><g fill="#ffbd59" fill-opacity="1"><g transform="translate(244.562734, 183.322071)"><g><path d="M 12.578125 -12.453125 L 12.578125 0 L 10.796875 0 L 10.796875 -5.546875 L 3.640625 -5.546875 L 3.640625 0 L 1.875 0 L 1.875 -12.453125 L 3.640625 -12.453125 L 3.640625 -7.09375 L 10.796875 -7.09375 L 10.796875 -12.453125 Z M 12.578125 -12.453125 "/></g></g></g><g fill="#ffbd59" fill-opacity="1"><g transform="translate(262.297416, 183.322071)"><g><path d="M 12.578125 -12.453125 L 12.578125 0 L 10.796875 0 L 10.796875 -5.546875 L 3.640625 -5.546875 L 3.640625 0 L 1.875 0 L 1.875 -12.453125 L 3.640625 -12.453125 L 3.640625 -7.09375 L 10.796875 -7.09375 L 10.796875 -12.453125 Z M 12.578125 -12.453125 "/></g></g></g><g fill="#ffbd59" fill-opacity="1"><g transform="translate(280.032098, 183.322071)"><g><path d="M 9.8125 -3.109375 L 3.1875 -3.109375 L 1.8125 0 L -0.015625 0 L 5.625 -12.453125 L 7.390625 -12.453125 L 13.046875 0 L 11.171875 0 Z M 9.1875 -4.53125 L 6.5 -10.640625 L 3.8125 -4.53125 Z M 9.1875 -4.53125 "/></g></g></g><g fill="#ffbd59" fill-opacity="1"><g transform="translate(296.343814, 183.322071)"><g><path d="M 1.875 -12.453125 L 3.640625 -12.453125 L 3.640625 -1.546875 L 10.390625 -1.546875 L 10.390625 0 L 1.875 0 Z M 1.875 -12.453125 "/></g></g></g><g fill="#ffbd59" fill-opacity="1"><g transform="translate(310.200907, 183.322071)"><g><path d="M 4.34375 -10.90625 L 0.078125 -10.90625 L 0.078125 -12.453125 L 10.375 -12.453125 L 10.375 -10.90625 L 6.109375 -10.90625 L 6.109375 0 L 4.34375 0 Z M 4.34375 -10.90625 "/></g></g></g><g fill="#ffbd59" fill-opacity="1"><g transform="translate(323.933479, 183.322071)"><g><path d="M 1.875 -12.453125 L 3.640625 -12.453125 L 3.640625 0 L 1.875 0 Z M 1.875 -12.453125 "/></g></g></g><g fill="#ffbd59" fill-opacity="1"><g transform="translate(332.739018, 183.322071)"><g><path d="M 10.5 -6.296875 L 12.203125 -6.296875 L 12.203125 -1.4375 C 11.585938 -0.925781 10.867188 -0.535156 10.046875 -0.265625 C 9.234375 0.00390625 8.382812 0.140625 7.5 0.140625 C 6.238281 0.140625 5.101562 -0.132812 4.09375 -0.6875 C 3.082031 -1.238281 2.289062 -1.992188 1.71875 -2.953125 C 1.144531 -3.921875 0.859375 -5.015625 0.859375 -6.234375 C 0.859375 -7.441406 1.144531 -8.53125 1.71875 -9.5 C 2.289062 -10.476562 3.082031 -11.238281 4.09375 -11.78125 C 5.113281 -12.320312 6.257812 -12.59375 7.53125 -12.59375 C 8.519531 -12.59375 9.421875 -12.429688 10.234375 -12.109375 C 11.054688 -11.785156 11.75 -11.304688 12.3125 -10.671875 L 11.21875 -9.578125 C 10.21875 -10.535156 9.007812 -11.015625 7.59375 -11.015625 C 6.644531 -11.015625 5.796875 -10.804688 5.046875 -10.390625 C 4.296875 -9.984375 3.707031 -9.414062 3.28125 -8.6875 C 2.851562 -7.957031 2.640625 -7.140625 2.640625 -6.234375 C 2.640625 -5.328125 2.851562 -4.507812 3.28125 -3.78125 C 3.707031 -3.050781 4.296875 -2.476562 5.046875 -2.0625 C 5.796875 -1.644531 6.640625 -1.4375 7.578125 -1.4375 C 8.691406 -1.4375 9.664062 -1.707031 10.5 -2.25 Z M 10.5 -6.296875 "/></g></g></g><g fill="#ffbd59" fill-opacity="1"><g transform="translate(349.762231, 183.322071)"><g><path d="M 2.03125 0.109375 C 1.695312 0.109375 1.410156 -0.00390625 1.171875 -0.234375 C 0.929688 -0.472656 0.8125 -0.769531 0.8125 -1.125 C 0.8125 -1.46875 0.929688 -1.753906 1.171875 -1.984375 C 1.410156 -2.210938 1.695312 -2.328125 2.03125 -2.328125 C 2.363281 -2.328125 2.640625 -2.210938 2.859375 -1.984375 C 3.085938 -1.765625 3.203125 -1.476562 3.203125 -1.125 C 3.203125 -0.769531 3.085938 -0.472656 2.859375 -0.234375 C 2.628906 -0.00390625 2.351562 0.109375 2.03125 0.109375 Z M 2.03125 0.109375 "/></g></g></g><g clip-path="url(#116d5a4d6a)"><path fill="#001849" d="M 26.660156 67.960938 C 26.617188 67.296875 26.574219 66.636719 26.574219 65.976562 C 26.574219 51.480469 38.332031 39.71875 52.832031 39.71875 C 53.582031 39.71875 54.332031 39.761719 55.082031 39.828125 C 61.125 28.882812 72.621094 22.085938 85.15625 22.085938 C 91.730469 22.085938 98.109375 23.941406 103.648438 27.46875 L 104.109375 27.777344 C 107.554688 26.277344 111.257812 25.527344 115.03125 25.527344 C 128.003906 25.527344 139.0625 34.550781 141.90625 46.863281 C 142.769531 46.792969 143.652344 46.75 144.507812 46.75 C 158.828125 46.75 170.722656 57.695312 171.980469 71.859375 L 172.445312 72.253906 C 177.5625 76.734375 180.519531 83.175781 180.519531 90.015625 C 180.519531 102.988281 169.929688 113.601562 156.933594 113.601562 L 64.523438 113.601562 L 61.699219 119.738281 L 79.730469 120.332031 L 16.488281 187.75 L 37.316406 139.957031 L 23.75 139.050781 L 34.671875 113.609375 C 21.851562 113.414062 11.457031 102.886719 11.457031 90.027344 C 11.457031 80.164062 17.617188 71.421875 26.660156 67.960938 Z M 26.660156 67.960938 " fill-opacity="1" fill-rule="evenodd"/></g><path fill="#ffbd59" d="M 168.40625 76.875 C 172.066406 80.070312 174.40625 84.796875 174.40625 90.023438 C 174.40625 99.621094 166.527344 107.496094 156.933594 107.496094 L 60.554688 107.496094 L 52.28125 125.546875 L 66.003906 126.007812 L 36.261719 157.742188 L 46.410156 134.441406 L 32.796875 133.515625 L 44.160156 107.5 L 35.046875 107.5 C 25.445312 107.5 17.570312 99.621094 17.570312 90.027344 C 17.570312 81.929688 23.128906 75.089844 30.632812 73.101562 C 33.699219 74.648438 36.988281 76.699219 39.945312 79.347656 C 40.058594 79.480469 40.164062 79.589844 40.296875 79.679688 C 42.746094 81.929688 44.929688 84.597656 46.519531 87.777344 C 46.054688 88.441406 45.769531 89.234375 45.769531 90.117188 C 45.769531 92.324219 47.554688 94.109375 49.742188 94.109375 C 51.949219 94.109375 53.734375 92.320312 53.734375 90.117188 C 53.734375 88.066406 52.167969 86.367188 50.160156 86.144531 C 48.8125 83.453125 47.113281 81.070312 45.195312 78.972656 C 58.195312 75.816406 67.789062 84.378906 75.78125 91.484375 C 78.800781 94.199219 81.625 96.714844 84.453125 98.457031 C 93.144531 103.839844 103.339844 99.339844 108.0625 96.621094 C 108.570312 96.867188 109.164062 97 109.785156 97 C 111.96875 97 113.757812 95.234375 113.757812 93.023438 C 113.757812 90.816406 111.96875 89.03125 109.785156 89.03125 C 107.578125 89.03125 105.792969 90.820312 105.792969 93.023438 C 105.792969 93.136719 105.792969 93.226562 105.816406 93.332031 C 101.710938 95.671875 93.367188 99.289062 86.53125 95.054688 C 84.058594 93.53125 81.34375 91.125 78.433594 88.5 C 69.253906 80.335938 58.113281 70.382812 41.894531 75.792969 C 39.070312 73.363281 36.003906 71.441406 33.113281 69.945312 C 32.847656 68.667969 32.714844 67.339844 32.714844 65.972656 C 32.714844 54.875 41.71875 45.851562 52.839844 45.851562 C 54.691406 45.851562 56.480469 46.09375 58.175781 46.578125 C 60.117188 49.402344 62.0625 52.734375 63.628906 56.464844 C 63.671875 56.621094 63.738281 56.796875 63.828125 56.925781 C 65.347656 60.675781 66.496094 64.804688 66.875 69.195312 C 65.769531 69.902344 65.0625 71.136719 65.0625 72.523438 C 65.0625 74.734375 66.851562 76.519531 69.039062 76.519531 C 71.246094 76.519531 73.03125 74.730469 73.03125 72.523438 C 73.03125 70.980469 72.148438 69.632812 70.847656 68.972656 C 70.539062 65.285156 69.742188 61.78125 68.636719 58.511719 C 73.777344 59.839844 83.464844 64.183594 85.804688 78.105469 C 84.855469 78.835938 84.257812 79.960938 84.257812 81.261719 C 84.257812 83.445312 86.046875 85.234375 88.234375 85.234375 C 90.441406 85.234375 92.226562 83.445312 92.226562 81.261719 C 92.226562 79.585938 91.210938 78.152344 89.753906 77.554688 C 86.597656 58.46875 71.375 54.761719 66.917969 54.082031 C 65.019531 49.777344 62.679688 46.007812 60.410156 42.871094 C 65.195312 34.132812 74.507812 28.195312 85.164062 28.195312 C 90.773438 28.195312 95.980469 29.832031 100.347656 32.632812 C 101.363281 34.773438 102.355469 37.597656 102.644531 40.90625 C 98.582031 40.53125 90.332031 40.6875 83.535156 46.664062 C 83.203125 46.578125 82.828125 46.511719 82.453125 46.511719 C 80.269531 46.511719 78.480469 48.296875 78.480469 50.503906 C 78.480469 52.707031 80.269531 54.476562 82.453125 54.476562 C 84.660156 54.476562 86.445312 52.710938 86.445312 50.503906 C 86.445312 50.171875 86.402344 49.839844 86.335938 49.53125 C 92.25 44.414062 99.484375 44.546875 102.644531 44.902344 C 102.597656 45.582031 102.488281 46.269531 102.355469 46.972656 C 100.546875 47.347656 99.175781 48.957031 99.175781 50.878906 C 99.175781 53.085938 100.964844 54.871094 103.171875 54.871094 C 105.378906 54.871094 107.164062 53.082031 107.164062 50.878906 C 107.164062 49.882812 106.789062 48.957031 106.167969 48.273438 C 106.523438 46.554688 106.699219 44.902344 106.722656 43.332031 C 106.722656 43.265625 106.722656 43.199219 106.722656 43.132812 C 106.746094 39.714844 106.082031 36.625 105.175781 34.039062 C 108.132812 32.519531 111.484375 31.65625 115.039062 31.65625 C 126.292969 31.65625 135.535156 40.328125 136.417969 51.382812 C 132.644531 55.132812 129.269531 60.9375 129.734375 69.410156 C 128.71875 70.136719 128.054688 71.332031 128.054688 72.675781 C 128.054688 74.863281 129.84375 76.648438 132.050781 76.648438 C 134.234375 76.648438 136.023438 74.863281 136.023438 72.675781 C 136.023438 71.066406 135.074219 69.679688 133.707031 69.058594 C 133.355469 61.402344 136.730469 56.394531 140.152344 53.328125 C 141.566406 53.019531 143.019531 52.863281 144.519531 52.863281 C 155.949219 52.863281 165.285156 61.777344 165.941406 73.03125 C 162.238281 73.382812 158.925781 74.070312 155.859375 74.972656 C 155.109375 71.75 152.882812 66.082031 146.417969 61.929688 C 146.417969 59.722656 144.628906 57.9375 142.421875 57.9375 C 140.214844 57.9375 138.449219 59.726562 138.449219 61.929688 C 138.449219 64.117188 140.214844 65.90625 142.421875 65.90625 C 143.148438 65.90625 143.835938 65.703125 144.40625 65.375 C 149.96875 69.015625 151.601562 73.847656 152.085938 76.207031 C 148.46875 77.53125 145.226562 79.074219 142.15625 80.53125 C 140.058594 81.527344 138.050781 82.472656 136.15625 83.246094 C 130.792969 85.453125 125.847656 86.777344 121.328125 85.917969 C 121.371094 81.550781 120.753906 69.746094 113.140625 62.59375 C 113.515625 60.585938 115.152344 55.753906 122.253906 51.78125 C 122.875 52.175781 123.601562 52.421875 124.417969 52.421875 C 126.601562 52.421875 128.390625 50.632812 128.390625 48.425781 C 128.390625 46.222656 126.601562 44.433594 124.417969 44.433594 C 122.277344 44.433594 120.535156 46.132812 120.425781 48.226562 C 113.515625 52.066406 110.804688 56.875 109.746094 60.054688 C 106.261719 57.980469 101.738281 56.746094 95.890625 56.921875 C 95.164062 55.839844 93.949219 55.132812 92.558594 55.132812 C 90.351562 55.132812 88.566406 56.921875 88.566406 59.125 C 88.566406 61.308594 90.355469 63.097656 92.558594 63.097656 C 94.105469 63.097656 95.453125 62.214844 96.113281 60.914062 C 114.847656 60.496094 117.164062 77.617188 117.339844 84.5 C 113.832031 82.625 110.457031 79.050781 107.148438 73.074219 C 107.542969 72.453125 107.765625 71.726562 107.765625 70.957031 C 107.765625 68.75 105.976562 66.960938 103.773438 66.960938 C 101.589844 66.960938 99.800781 68.75 99.800781 70.957031 C 99.800781 73.097656 101.496094 74.863281 103.636719 74.929688 C 108.25 83.335938 113.214844 87.640625 118.550781 89.316406 C 118.640625 89.359375 118.726562 89.382812 118.839844 89.402344 C 118.949219 89.449219 119.058594 89.472656 119.171875 89.492188 C 125.039062 91.125 131.128906 89.625 137.683594 86.933594 C 139.753906 86.09375 141.765625 85.125 143.859375 84.128906 C 150.511719 80.976562 157.992188 77.425781 168.40625 76.875 Z M 168.40625 76.875 " fill-opacity="1" fill-rule="evenodd"/><g clip-path="url(#ea0f6659c1)"><g clip-path="url(#5a65dddbe1)"><g clip-path="url(#0b61dec0e1)"><path fill="#001849" d="M 166.226562 72.476562 L 176.335938 78.628906 L 163.164062 100.265625 L 153.058594 94.113281 Z M 166.226562 72.476562 " fill-opacity="1" fill-rule="nonzero"/></g></g></g></svg>