<svg xmlns="http://www.w3.org/2000/svg" xmlns:xlink="http://www.w3.org/1999/xlink" width="500" zoomAndPan="magnify" viewBox="0 0 375 374.999991" height="500" preserveAspectRatio="xMidYMid meet" version="1.0"><defs><g/><clipPath id="ca29938af3"><path d="M 4.898438 8.550781 L 370.148438 8.550781 L 370.148438 366.300781 L 4.898438 366.300781 Z M 4.898438 8.550781 " clip-rule="nonzero"/></clipPath><clipPath id="cfd99a1b82"><path d="M 313 121 L 356 121 L 356 167 L 313 167 Z M 313 121 " clip-rule="nonzero"/></clipPath><clipPath id="cbf40586ef"><path d="M 339.1875 117.25 L 361.109375 130.59375 L 332.558594 177.503906 L 310.636719 164.160156 Z M 339.1875 117.25 " clip-rule="nonzero"/></clipPath><clipPath id="6845c2dda0"><path d="M 354.832031 126.886719 L 342.335938 121.40625 C 342.152344 121.332031 341.894531 121.371094 341.792969 121.539062 L 323 144.039062 C 322.800781 144.304688 322.890625 144.667969 323.1875 144.8125 L 330.894531 147.878906 C 331.210938 147.996094 331.292969 148.433594 331.066406 148.679688 L 313.65625 165.226562 C 313.445312 165.445312 313.460938 165.804688 313.742188 165.972656 C 313.882812 166.058594 314.078125 166.0625 314.230469 166 L 352.273438 144.984375 C 352.628906 144.777344 352.601562 144.257812 352.226562 144.105469 L 341.5 140.164062 C 341.15625 140.03125 341.074219 139.597656 341.347656 139.335938 L 354.957031 127.699219 C 355.210938 127.46875 355.15625 127.050781 354.832031 126.886719 Z M 354.832031 126.886719 " clip-rule="nonzero"/></clipPath></defs><g clip-path="url(#ca29938af3)"><path fill="#001849" d="M 37.742188 107.640625 C 37.644531 106.210938 37.550781 104.777344 37.550781 103.355469 C 37.550781 72.042969 62.953125 46.632812 94.273438 46.632812 C 95.894531 46.632812 97.515625 46.726562 99.136719 46.875 C 112.1875 23.230469 137.023438 8.550781 164.097656 8.550781 C 178.304688 8.550781 192.078125 12.550781 204.042969 20.175781 L 205.042969 20.84375 C 212.480469 17.597656 220.484375 15.976562 228.636719 15.976562 C 256.660156 15.976562 280.542969 35.472656 286.6875 62.066406 C 288.546875 61.917969 290.453125 61.824219 292.308594 61.824219 C 323.242188 61.824219 348.9375 85.46875 351.652344 116.0625 L 352.65625 116.917969 C 363.714844 126.59375 370.097656 140.507812 370.097656 155.285156 C 370.097656 183.308594 347.222656 206.238281 319.144531 206.238281 L 119.53125 206.238281 L 113.429688 219.484375 L 152.375 220.773438 L 15.769531 366.402344 L 60.761719 263.164062 L 31.453125 261.207031 L 55.042969 206.25 C 27.355469 205.828125 4.902344 183.089844 4.902344 155.308594 C 4.902344 134 18.203125 115.121094 37.742188 107.640625 Z M 37.742188 107.640625 " fill-opacity="1" fill-rule="evenodd"/></g><path fill="#ffbd59" d="M 343.925781 126.894531 C 351.835938 133.804688 356.890625 144.007812 356.890625 155.300781 C 356.890625 176.035156 339.875 193.046875 319.144531 193.046875 L 110.953125 193.046875 L 93.082031 232.035156 L 122.726562 233.035156 L 58.476562 301.582031 L 80.402344 251.25 L 50.996094 249.25 L 75.546875 193.054688 L 55.855469 193.054688 C 35.117188 193.054688 18.109375 176.035156 18.109375 155.308594 C 18.109375 137.8125 30.113281 123.039062 46.324219 118.75 C 52.945312 122.089844 60.046875 126.523438 66.4375 132.242188 C 66.679688 132.527344 66.910156 132.765625 67.195312 132.957031 C 72.484375 137.820312 77.203125 143.585938 80.636719 150.449219 C 79.636719 151.882812 79.015625 153.597656 79.015625 155.503906 C 79.015625 160.273438 82.878906 164.128906 87.597656 164.128906 C 92.367188 164.128906 96.222656 160.265625 96.222656 155.503906 C 96.222656 151.070312 92.839844 147.402344 88.503906 146.921875 C 85.59375 141.109375 81.921875 135.957031 77.78125 131.429688 C 105.855469 124.617188 126.585938 143.109375 143.84375 158.453125 C 150.375 164.320312 156.472656 169.753906 162.578125 173.515625 C 181.355469 185.144531 203.378906 175.421875 213.582031 169.558594 C 214.675781 170.082031 215.960938 170.367188 217.300781 170.367188 C 222.015625 170.367188 225.882812 166.554688 225.882812 161.785156 C 225.882812 157.015625 222.015625 153.160156 217.300781 153.160156 C 212.53125 153.160156 208.671875 157.023438 208.671875 161.785156 C 208.671875 162.027344 208.671875 162.214844 208.722656 162.449219 C 199.859375 167.503906 181.839844 175.320312 167.070312 166.167969 C 161.730469 162.882812 155.867188 157.679688 149.578125 152.011719 C 129.746094 134.375 105.679688 112.878906 70.644531 124.558594 C 64.546875 119.3125 57.921875 115.164062 51.675781 111.929688 C 51.105469 109.167969 50.820312 106.304688 50.820312 103.347656 C 50.820312 79.375 70.265625 59.882812 94.285156 59.882812 C 98.289062 59.882812 102.152344 60.40625 105.820312 61.453125 C 110.011719 67.550781 114.210938 74.753906 117.59375 82.808594 C 117.6875 83.144531 117.835938 83.523438 118.023438 83.808594 C 121.3125 91.910156 123.792969 100.828125 124.605469 110.308594 C 122.222656 111.835938 120.699219 114.5 120.699219 117.5 C 120.699219 122.269531 124.5625 126.128906 129.28125 126.128906 C 134.050781 126.128906 137.90625 122.265625 137.90625 117.5 C 137.90625 114.164062 136 111.257812 133.1875 109.824219 C 132.523438 101.863281 130.804688 94.289062 128.417969 87.234375 C 139.519531 90.097656 160.445312 99.484375 165.5 129.5625 C 163.449219 131.132812 162.160156 133.5625 162.160156 136.375 C 162.160156 141.09375 166.027344 144.957031 170.746094 144.957031 C 175.511719 144.957031 179.371094 141.09375 179.371094 136.375 C 179.371094 132.753906 177.179688 129.65625 174.03125 128.371094 C 167.214844 87.140625 134.328125 79.132812 124.699219 77.660156 C 120.601562 68.363281 115.546875 60.21875 110.640625 53.445312 C 120.984375 34.574219 141.097656 21.746094 164.121094 21.746094 C 176.230469 21.746094 187.476562 25.277344 196.914062 31.332031 C 199.105469 35.953125 201.253906 42.054688 201.875 49.203125 C 193.101562 48.390625 175.28125 48.726562 160.597656 61.640625 C 159.882812 61.453125 159.074219 61.304688 158.261719 61.304688 C 153.542969 61.304688 149.679688 65.167969 149.679688 69.933594 C 149.679688 74.695312 153.542969 78.515625 158.261719 78.515625 C 163.03125 78.515625 166.886719 74.699219 166.886719 69.933594 C 166.886719 69.214844 166.792969 68.5 166.648438 67.835938 C 179.421875 56.777344 195.050781 57.0625 201.875 57.828125 C 201.777344 59.304688 201.539062 60.789062 201.253906 62.304688 C 197.34375 63.117188 194.386719 66.59375 194.386719 70.742188 C 194.386719 75.511719 198.25 79.367188 203.011719 79.367188 C 207.78125 79.367188 211.636719 75.503906 211.636719 70.742188 C 211.636719 68.59375 210.828125 66.59375 209.492188 65.117188 C 210.25 61.402344 210.636719 57.828125 210.683594 54.441406 C 210.683594 54.292969 210.683594 54.15625 210.683594 54.007812 C 210.734375 46.625 209.300781 39.949219 207.34375 34.367188 C 213.726562 31.082031 220.972656 29.21875 228.648438 29.21875 C 252.957031 29.21875 272.925781 47.953125 274.832031 71.832031 C 266.679688 79.929688 259.390625 92.472656 260.390625 110.773438 C 258.199219 112.34375 256.769531 114.921875 256.769531 117.832031 C 256.769531 122.550781 260.632812 126.414062 265.394531 126.414062 C 270.113281 126.414062 273.976562 122.550781 273.976562 117.832031 C 273.976562 114.355469 271.925781 111.351562 268.972656 110.015625 C 268.214844 93.480469 275.503906 82.65625 282.894531 76.03125 C 285.949219 75.367188 289.089844 75.03125 292.332031 75.03125 C 317.019531 75.03125 337.183594 94.28125 338.609375 118.597656 C 330.605469 119.355469 323.453125 120.839844 316.828125 122.789062 C 315.207031 115.828125 310.394531 103.582031 296.429688 94.617188 C 296.429688 89.847656 292.566406 85.992188 287.804688 85.992188 C 283.035156 85.992188 279.222656 89.855469 279.222656 94.617188 C 279.222656 99.335938 283.035156 103.199219 287.804688 103.199219 C 289.375 103.199219 290.855469 102.769531 292.089844 102.054688 C 304.097656 109.921875 307.625 120.359375 308.679688 125.457031 C 300.863281 128.320312 293.859375 131.648438 287.226562 134.796875 C 282.699219 136.945312 278.359375 138.988281 274.261719 140.664062 C 262.679688 145.433594 252 148.289062 242.234375 146.433594 C 242.328125 136.996094 240.992188 111.5 224.550781 96.050781 C 225.363281 91.710938 228.890625 81.273438 244.234375 72.691406 C 245.574219 73.546875 247.144531 74.074219 248.910156 74.074219 C 253.628906 74.074219 257.492188 70.210938 257.492188 65.445312 C 257.492188 60.683594 253.628906 56.820312 248.910156 56.820312 C 244.285156 56.820312 240.519531 60.488281 240.285156 65.015625 C 225.363281 73.304688 219.503906 83.699219 217.21875 90.566406 C 209.6875 86.089844 199.914062 83.414062 187.289062 83.792969 C 185.71875 81.457031 183.09375 79.929688 180.09375 79.929688 C 175.324219 79.929688 171.46875 83.792969 171.46875 88.554688 C 171.46875 93.273438 175.332031 97.140625 180.09375 97.140625 C 183.429688 97.140625 186.339844 95.230469 187.769531 92.421875 C 228.234375 91.515625 233.242188 128.5 233.625 143.371094 C 226.042969 139.320312 218.753906 131.597656 211.601562 118.683594 C 212.457031 117.347656 212.9375 115.777344 212.9375 114.113281 C 212.9375 109.34375 209.074219 105.488281 204.3125 105.488281 C 199.59375 105.488281 195.730469 109.351562 195.730469 114.113281 C 195.730469 118.734375 199.398438 122.550781 204.019531 122.695312 C 213.984375 140.851562 224.707031 150.148438 236.238281 153.773438 C 236.429688 153.867188 236.617188 153.917969 236.859375 153.964844 C 237.101562 154.058594 237.332031 154.109375 237.574219 154.152344 C 250.253906 157.679688 263.410156 154.4375 277.5625 148.625 C 282.039062 146.8125 286.378906 144.714844 290.90625 142.570312 C 305.273438 135.761719 321.429688 128.085938 343.925781 126.894531 Z M 343.925781 126.894531 " fill-opacity="1" fill-rule="evenodd"/><g fill="#001849" fill-opacity="1"><g transform="translate(160.158817, 273.398447)"><g><path d="M 2.234375 -53.953125 C 2.960938 -53.953125 4.054688 -53.9375 5.515625 -53.90625 C 6.984375 -53.882812 8.585938 -53.734375 10.328125 -53.453125 C 12.078125 -53.179688 13.738281 -52.6875 15.3125 -51.96875 C 16.894531 -51.25 18.195312 -50.171875 19.21875 -48.734375 C 20.238281 -47.296875 20.722656 -45.410156 20.671875 -43.078125 C 20.617188 -40.535156 20.050781 -38.53125 18.96875 -37.0625 C 17.882812 -35.59375 16.523438 -34.515625 14.890625 -33.828125 C 13.265625 -33.140625 11.632812 -32.695312 10 -32.5 C 8.363281 -32.300781 6.96875 -32.234375 5.8125 -32.296875 C 5.644531 -30.691406 5.738281 -28.929688 6.09375 -27.015625 C 6.457031 -25.109375 7.148438 -23.394531 8.171875 -21.875 C 9.203125 -20.351562 10.628906 -19.34375 12.453125 -18.84375 C 15.328125 -18.070312 17.816406 -18.113281 19.921875 -18.96875 C 22.023438 -19.820312 23.753906 -21.203125 25.109375 -23.109375 C 26.460938 -25.023438 27.484375 -27.1875 28.171875 -29.59375 C 28.867188 -32 29.269531 -34.429688 29.375 -36.890625 C 29.488281 -39.359375 29.328125 -41.5625 28.890625 -43.5 C 28.441406 -45.488281 27.75 -47.382812 26.8125 -49.1875 C 25.875 -50.988281 24.6875 -52.578125 23.25 -53.953125 L 42.09375 -53.953125 C 45.519531 -48.585938 47.578125 -43.039062 48.265625 -37.3125 C 48.960938 -31.582031 48.507812 -26.203125 46.90625 -21.171875 C 49.945312 -21.609375 52.40625 -22.710938 54.28125 -24.484375 C 56.164062 -26.253906 57.535156 -28.398438 58.390625 -30.921875 C 59.253906 -33.441406 59.65625 -36.113281 59.59375 -38.9375 C 59.539062 -41.757812 59.097656 -44.484375 58.265625 -47.109375 C 57.441406 -49.734375 56.3125 -52.015625 54.875 -53.953125 L 72.21875 -53.953125 C 74.707031 -49.972656 76.503906 -45.796875 77.609375 -41.421875 C 78.722656 -37.046875 79.164062 -32.710938 78.9375 -28.421875 C 78.71875 -24.140625 77.820312 -20.128906 76.25 -16.390625 C 74.675781 -12.660156 72.445312 -9.4375 69.5625 -6.71875 C 66.6875 -4.007812 63.160156 -2.03125 58.984375 -0.78125 C 54.804688 0.457031 49.945312 0.71875 44.40625 0 L 45.90625 -16.359375 L 45 -16.6875 C 42.78125 -13.144531 40.066406 -10.128906 36.859375 -7.640625 C 33.648438 -5.148438 30.132812 -3.210938 26.3125 -1.828125 C 22.5 -0.441406 18.539062 0.34375 14.4375 0.53125 C 10.34375 0.726562 6.304688 0.273438 2.328125 -0.828125 Z M 2.234375 -53.953125 "/></g></g></g><g fill="#001849" fill-opacity="1"><g transform="translate(253.863708, 273.398447)"><g><path d="M 2.234375 -53.953125 C 2.960938 -53.953125 4.054688 -53.9375 5.515625 -53.90625 C 6.984375 -53.882812 8.585938 -53.734375 10.328125 -53.453125 C 12.078125 -53.179688 13.738281 -52.6875 15.3125 -51.96875 C 16.894531 -51.25 18.195312 -50.171875 19.21875 -48.734375 C 20.238281 -47.296875 20.722656 -45.410156 20.671875 -43.078125 C 20.617188 -40.535156 20.050781 -38.53125 18.96875 -37.0625 C 17.882812 -35.59375 16.523438 -34.515625 14.890625 -33.828125 C 13.265625 -33.140625 11.632812 -32.695312 10 -32.5 C 8.363281 -32.300781 6.96875 -32.234375 5.8125 -32.296875 C 5.644531 -30.691406 5.738281 -28.929688 6.09375 -27.015625 C 6.457031 -25.109375 7.148438 -23.394531 8.171875 -21.875 C 9.203125 -20.351562 10.628906 -19.34375 12.453125 -18.84375 C 15.328125 -18.070312 17.816406 -18.113281 19.921875 -18.96875 C 22.023438 -19.820312 23.753906 -21.203125 25.109375 -23.109375 C 26.460938 -25.023438 27.484375 -27.1875 28.171875 -29.59375 C 28.867188 -32 29.269531 -34.429688 29.375 -36.890625 C 29.488281 -39.359375 29.328125 -41.5625 28.890625 -43.5 C 28.441406 -45.488281 27.75 -47.382812 26.8125 -49.1875 C 25.875 -50.988281 24.6875 -52.578125 23.25 -53.953125 L 42.09375 -53.953125 C 45.519531 -48.585938 47.578125 -43.039062 48.265625 -37.3125 C 48.960938 -31.582031 48.507812 -26.203125 46.90625 -21.171875 C 49.945312 -21.609375 52.40625 -22.710938 54.28125 -24.484375 C 56.164062 -26.253906 57.535156 -28.398438 58.390625 -30.921875 C 59.253906 -33.441406 59.65625 -36.113281 59.59375 -38.9375 C 59.539062 -41.757812 59.097656 -44.484375 58.265625 -47.109375 C 57.441406 -49.734375 56.3125 -52.015625 54.875 -53.953125 L 72.21875 -53.953125 C 74.707031 -49.972656 76.503906 -45.796875 77.609375 -41.421875 C 78.722656 -37.046875 79.164062 -32.710938 78.9375 -28.421875 C 78.71875 -24.140625 77.820312 -20.128906 76.25 -16.390625 C 74.675781 -12.660156 72.445312 -9.4375 69.5625 -6.71875 C 66.6875 -4.007812 63.160156 -2.03125 58.984375 -0.78125 C 54.804688 0.457031 49.945312 0.71875 44.40625 0 L 45.90625 -16.359375 L 45 -16.6875 C 42.78125 -13.144531 40.066406 -10.128906 36.859375 -7.640625 C 33.648438 -5.148438 30.132812 -3.210938 26.3125 -1.828125 C 22.5 -0.441406 18.539062 0.34375 14.4375 0.53125 C 10.34375 0.726562 6.304688 0.273438 2.328125 -0.828125 Z M 2.234375 -53.953125 "/></g></g></g><g clip-path="url(#cfd99a1b82)"><g clip-path="url(#cbf40586ef)"><g clip-path="url(#6845c2dda0)"><path fill="#001849" d="M 339.222656 117.386719 L 361.058594 130.679688 L 332.609375 177.417969 L 310.773438 164.128906 Z M 339.222656 117.386719 " fill-opacity="1" fill-rule="nonzero"/></g></g></g></svg>